<?xml version="1.0" encoding="UTF-8" standalone="no"?>
<svg width="193px" height="188px" viewBox="0 0 193 188" version="1.1" xmlns="http://www.w3.org/2000/svg" xmlns:xlink="http://www.w3.org/1999/xlink">
    <!-- Generator: Sketch 40.3 (33839) - http://www.bohemiancoding.com/sketch -->
    <title>broccoli</title>
    <desc>Created with Sketch.</desc>
    <defs></defs>
    <g id="Page-1" stroke="none" stroke-width="1" fill="none" fill-rule="evenodd">
        <g id="broccoli" transform="translate(-1.000000, 0.000000)">
            <g id="Group-4">
                <g>
                    <g id="Group-3" transform="translate(35.000000, 35.000000)">
                        <path d="M54.0869565,79.96537 C58.7826087,79.1321497 56.9889276,73.4607957 57.2173913,73.3151938 C60.3478261,71.320141 64,66 64,66 L63.4782609,133.831797 L47.826087,134 C47.826087,134 47.6951625,109.763828 45.7391304,97.2558282 C45.0864668,93.0823196 40,85.285511 40,85.285511 L45.7391304,74.6452291 C45.7391304,74.6452291 50.5340549,80.5958149 54.0869565,79.96537 Z" id="Rectangle-4" fill="#A3D165"></path>
                        <path d="M77.0869565,79.96537 C81.7826087,79.1321497 79.9889276,73.4607957 80.2173913,73.3151938 C83.3478261,71.320141 87,66 87,66 L86.4782609,133.831797 L70.826087,134 C70.826087,134 70.6951625,109.763828 68.7391304,97.2558282 C68.0864668,93.0823196 63,85.285511 63,85.285511 L68.7391304,74.6452291 C68.7391304,74.6452291 73.5340549,80.5958149 77.0869565,79.96537 Z" id="Rectangle-4" fill="#85C95D" transform="translate(75.000000, 100.000000) scale(-1, 1) translate(-75.000000, -100.000000) "></path>
                        <g id="Group" transform="translate(39.000000, 117.000000)" fill="#B5C6CA">
                            <rect id="Rectangle-1" x="0" y="0" width="49" height="12.5581395" rx="6.27906977"></rect>
                            <rect id="Rectangle-1" x="2.57894737" y="11.7209302" width="43.8421053" height="12.5581395" rx="6.27906977"></rect>
                            <path d="M24.5,36 C32.8084943,36 39.5438596,31.1271922 39.5438596,25.1162791 C39.5438596,19.105366 32.8084943,14.2325581 24.5,14.2325581 C16.1915057,14.2325581 9.45614035,19.105366 9.45614035,25.1162791 C9.45614035,31.1271922 16.1915057,36 24.5,36 Z" id="Oval-1"></path>
                        </g>
                        <g id="Group-14">
                            <g id="Group-2" transform="translate(93.000000, 45.000000) scale(-1, 1) translate(-93.000000, -45.000000) translate(61.000000, 0.000000)" fill="#0C8D49">
                                <ellipse id="Oval-12" cx="27.2732558" cy="70.5337079" rx="19.2732558" ry="19.4662921"></ellipse>
                                <ellipse id="Oval-12" cx="16.1395349" cy="46.7547918" rx="15.872093" ry="16.0310641"></ellipse>
                                <ellipse id="Oval-12" cx="36.3430233" cy="24.8816666" rx="18.3430233" ry="18.5267426"></ellipse>
                                <ellipse id="Oval-12" cx="43.3430233" cy="57.2412171" rx="18.3430233" ry="18.5267426"></ellipse>
                                <path d="M63,0 C54.2340851,0 47.127907,7.17735188 47.127907,16.0310641 C47.127907,24.8847763 54.2340851,32.0621282 63,32.0621282 L63,32.0621282" id="Oval-12"></path>
                                <path d="M63,20.0363516 C54.2340851,20.0363516 47.127907,27.2137035 47.127907,36.0674157 C47.127907,44.921128 54.2340851,52.0984798 63,52.0984798 L63,52.0984798" id="Oval-12"></path>
                                <path d="M63,44.3060145 C54.2340851,44.3060145 47.127907,51.4833664 47.127907,60.3370787 C47.127907,69.1907909 54.2340851,76.3681428 63,76.3681428 L63,76.3681428" id="Oval-12"></path>
                            </g>
                            <g id="Group-2" fill="#0CA44A">
                                <ellipse id="Oval-12" cx="27.2732558" cy="70.5337079" rx="19.2732558" ry="19.4662921"></ellipse>
                                <ellipse id="Oval-12" cx="16.1395349" cy="46.7547918" rx="15.872093" ry="16.0310641"></ellipse>
                                <ellipse id="Oval-12" cx="36.3430233" cy="24.8816666" rx="18.3430233" ry="18.5267426"></ellipse>
                                <ellipse id="Oval-12" cx="43.3430233" cy="57.2412171" rx="18.3430233" ry="18.5267426"></ellipse>
                                <path d="M63,0 C54.2340851,0 47.127907,7.17735188 47.127907,16.0310641 C47.127907,24.8847763 54.2340851,32.0621282 63,32.0621282 L63,32.0621282" id="Oval-12"></path>
                                <path d="M63,20.0363516 C54.2340851,20.0363516 47.127907,27.2137035 47.127907,36.0674157 C47.127907,44.921128 54.2340851,52.0984798 63,52.0984798 L63,52.0984798" id="Oval-12"></path>
                                <path d="M63,44.3060145 C54.2340851,44.3060145 47.127907,51.4833664 47.127907,60.3370787 C47.127907,69.1907909 54.2340851,76.3681428 63,76.3681428 L63,76.3681428" id="Oval-12"></path>
                            </g>
                        </g>
                    </g>
                    <rect id="Rectangle-4" fill="#FFDD38" transform="translate(11.912930, 70.401750) rotate(-68.000000) translate(-11.912930, -70.401750) " x="10.0056541" y="58.9017496" width="3.81455226" height="23" rx="1.90727613"></rect>
                    <rect id="Rectangle-4" fill="#FFDD38" transform="translate(182.912930, 70.401750) scale(-1, 1) rotate(-68.000000) translate(-182.912930, -70.401750) " x="181.005654" y="58.9017496" width="3.81455226" height="23" rx="1.90727613"></rect>
                    <rect id="Rectangle-4" fill="#FFDD38" transform="translate(24.228589, 123.588689) rotate(605.000000) translate(-24.228589, -123.588689) " x="22.3213131" y="112.088689" width="3.81455226" height="23" rx="1.90727613"></rect>
                    <rect id="Rectangle-4" fill="#FFDD38" transform="translate(171.228589, 123.588689) scale(-1, 1) rotate(605.000000) translate(-171.228589, -123.588689) " x="169.321313" y="112.088689" width="3.81455226" height="23" rx="1.90727613"></rect>
                    <rect id="Rectangle-4" fill="#FFDD38" transform="translate(43.757813, 27.763255) rotate(-32.000000) translate(-43.757813, -27.763255) " x="41.8505364" y="16.2632555" width="3.81455226" height="23" rx="1.90727613"></rect>
                    <rect id="Rectangle-4" fill="#FFDD38" transform="translate(153.757813, 27.763255) scale(-1, 1) rotate(-32.000000) translate(-153.757813, -27.763255) " x="151.850536" y="16.2632555" width="3.81455226" height="23" rx="1.90727613"></rect>
                    <rect id="Rectangle-4" fill="#FFDD38" x="96" y="0" width="3.81455226" height="23" rx="1.90727613"></rect>
                </g>
            </g>
        </g>
    </g>
</svg>